<svg width="93" height="70" viewBox="0 0 93 70" fill="none" xmlns="http://www.w3.org/2000/svg">
<path d="M87.6912 53.2777L78.3137 15.7499C78.0861 14.8455 77.5421 14.0534 76.7809 13.518C76.0198 12.9826 75.0923 12.7396 74.1675 12.8333C68.975 13.3777 54.7925 14.3888 46.5 14.3888C38.2075 14.3888 24.025 13.3777 18.8325 12.8333C17.9077 12.7396 16.9802 12.9826 16.219 13.518C15.4579 14.0534 14.9139 14.8455 14.6862 15.7499L5.30875 53.2777C5.10328 54.0553 5.0603 54.8672 5.18252 55.6623C5.30474 56.4574 5.58951 57.2185 6.01894 57.8978C6.44837 58.5772 7.01317 59.16 7.67785 59.6097C8.34252 60.0594 9.09271 60.3663 9.88125 60.5111C22.0056 62.2842 34.2481 63.1163 46.5 62.9999C58.7519 63.1163 70.9944 62.2842 83.1188 60.5111C83.9073 60.3663 84.6575 60.0594 85.3222 59.6097C85.9868 59.16 86.5516 58.5772 86.9811 57.8978C87.4105 57.2185 87.6953 56.4574 87.8175 55.6623C87.9397 54.8672 87.8967 54.0553 87.6912 53.2777Z" fill="#D6C20F"/>
</svg>
