<svg width="93" height="70" viewBox="0 0 93 70" fill="none" xmlns="http://www.w3.org/2000/svg">
<path d="M82.4739 24.1377L59.4146 21.6153L49.1065 5.88577C48.825 5.4551 48.3618 5.10647 47.7896 4.89456C46.3547 4.36135 44.6109 4.80569 43.8935 5.88577L33.5853 21.6153L10.5261 24.1377C9.89033 24.2061 9.30908 24.4317 8.86406 24.7735C8.32605 25.1897 8.02959 25.7496 8.03981 26.3303C8.05002 26.9109 8.36609 27.4648 8.91855 27.8701L25.6022 40.1133L21.6606 57.4014C21.5682 57.8036 21.6273 58.2172 21.8313 58.5953C22.0353 58.9735 22.376 59.301 22.8147 59.5409C23.2534 59.7807 23.7726 59.9232 24.3135 59.9523C24.8544 59.9813 25.3952 59.8957 25.8747 59.7051L46.5 51.543L67.1253 59.7051C67.6884 59.9307 68.3423 60.0059 68.9689 59.9239C70.5492 59.7188 71.6118 58.5908 71.3394 57.4014L67.3978 40.1133L84.0814 27.8701C84.5355 27.5352 84.8353 27.0977 84.9261 26.6192C85.1713 25.4229 84.0633 24.3155 82.4739 24.1377Z" fill="#D6C20F"/>
</svg>
