<svg width="28" height="26" viewBox="0 0 28 26" fill="none" xmlns="http://www.w3.org/2000/svg">
<path d="M26.3782 9.03429L18.4438 7.88116L14.8969 0.690539C14.8001 0.493664 14.6407 0.334289 14.4438 0.237414C13.9501 -0.00633609 13.3501 0.196789 13.1032 0.690539L9.55631 7.88116L1.62193 9.03429C1.40318 9.06554 1.20318 9.16866 1.05006 9.32491C0.864939 9.51518 0.76293 9.77116 0.766445 10.0366C0.769961 10.3021 0.878714 10.5552 1.06881 10.7405L6.80943 16.3374L5.45318 24.2405C5.42138 24.4244 5.44172 24.6135 5.51191 24.7863C5.58209 24.9592 5.69931 25.1089 5.85027 25.2186C6.00123 25.3282 6.17989 25.3934 6.36599 25.4066C6.5521 25.4199 6.73819 25.3808 6.90318 25.2937L14.0001 21.5624L21.0969 25.2937C21.2907 25.3968 21.5157 25.4312 21.7313 25.3937C22.2751 25.2999 22.6407 24.7843 22.5469 24.2405L21.1907 16.3374L26.9313 10.7405C27.0876 10.5874 27.1907 10.3874 27.2219 10.1687C27.3063 9.62179 26.9251 9.11554 26.3782 9.03429Z" fill="#D6C20F"/>
</svg>
