<svg width="32" height="30" viewBox="0 0 32 30" fill="none" xmlns="http://www.w3.org/2000/svg">
<g clip-path="url(#clip0_4_250)">
<path d="M10.708 9.77819L15.076 1.9355C15.1599 1.77773 15.2909 1.64447 15.4543 1.5509C15.6177 1.45734 15.8067 1.40722 16 1.40625C16.366 1.40625 16.732 1.58206 16.93 1.9355L21.298 9.77819L31.094 11.0397C31.3382 11.0745 31.5616 11.1845 31.7267 11.3513C31.8917 11.518 31.9882 11.7313 32 11.955C32.0139 12.104 31.9906 12.2539 31.9317 12.3935C31.8729 12.5332 31.78 12.659 31.66 12.7616L24.614 18.8443L26.274 27.4174C26.43 28.2204 25.554 28.8493 24.782 28.4904L16 24.4014L7.22198 28.4904C7.13016 28.5336 7.03174 28.5642 6.92998 28.5811C6.24598 28.6898 5.59398 28.1207 5.72998 27.4174L7.38998 18.8443L0.345975 12.7616C0.236466 12.6677 0.149422 12.5544 0.0902455 12.4287C0.0310691 12.3031 0.00102393 12.1677 0.00197502 12.0311C0.00207904 11.838 0.0608977 11.6486 0.171975 11.4838C0.250772 11.3643 0.358173 11.2623 0.486251 11.1855C0.614329 11.1086 0.759815 11.0588 0.911975 11.0397L10.708 9.77819ZM16 22.2989C16.1614 22.2983 16.3206 22.3332 16.464 22.4004L23.836 25.8333L22.448 18.6613C22.4152 18.4963 22.4276 18.3266 22.4841 18.167C22.5406 18.0074 22.6394 17.8628 22.772 17.7459L28.586 12.7253L20.482 11.6813C20.3142 11.6583 20.155 11.5989 20.0181 11.5079C19.8812 11.417 19.7707 11.2974 19.696 11.1593L16.002 4.52919L16 4.53463V22.2971V22.2989Z" fill="#D6C20F"/>
</g>
<defs>
<clipPath id="clip0_4_250">
<rect width="32" height="29" fill="white" transform="translate(0 0.5)"/>
</clipPath>
</defs>
</svg>
