<svg width="100" height="100" viewBox="0 0 100 100" fill="none" xmlns="http://www.w3.org/2000/svg">
<path d="M47.0703 14.8438H52.9297C53.4505 14.8438 53.7109 15.1042 53.7109 15.625V84.375C53.7109 84.8958 53.4505 85.1562 52.9297 85.1562H47.0703C46.5495 85.1562 46.2891 84.8958 46.2891 84.375V15.625C46.2891 15.1042 46.5495 14.8438 47.0703 14.8438Z" fill="white"/>
<path d="M17.1875 46.2891H82.8125C83.3333 46.2891 83.5938 46.5495 83.5938 47.0703V52.9297C83.5938 53.4505 83.3333 53.7109 82.8125 53.7109H17.1875C16.6667 53.7109 16.4062 53.4505 16.4062 52.9297V47.0703C16.4062 46.5495 16.6667 46.2891 17.1875 46.2891Z" fill="white"/>
</svg>
