<svg width="25" height="24" viewBox="0 0 25 24" fill="none" xmlns="http://www.w3.org/2000/svg">
<path d="M18.207 12.2932C18.1142 12.2003 18.004 12.1265 17.8827 12.0762C17.7614 12.0259 17.6313 12 17.5 12C17.3687 12 17.2386 12.0259 17.1173 12.0762C16.996 12.1265 16.8858 12.2003 16.793 12.2932L15.199 13.8872C14.46 13.6672 13.081 13.1672 12.207 12.2932C11.333 11.4192 10.833 10.0402 10.613 9.3012L12.207 7.7072C12.2999 7.61441 12.3737 7.50421 12.424 7.38289C12.4743 7.26158 12.5002 7.13153 12.5002 7.0002C12.5002 6.86887 12.4743 6.73882 12.424 6.61751C12.3737 6.49619 12.2999 6.38599 12.207 6.2932L8.207 2.2932C8.11421 2.20026 8.00401 2.12652 7.88269 2.07621C7.76138 2.0259 7.63133 2 7.5 2C7.36866 2 7.23862 2.0259 7.1173 2.07621C6.99599 2.12652 6.88579 2.20026 6.793 2.2932L4.081 5.0052C3.701 5.3852 3.487 5.9072 3.495 6.4402C3.518 7.8642 3.895 12.8102 7.793 16.7082C11.691 20.6062 16.637 20.9822 18.062 21.0062H18.09C18.618 21.0062 19.117 20.7982 19.495 20.4202L22.207 17.7082C22.2999 17.6154 22.3737 17.5052 22.424 17.3839C22.4743 17.2626 22.5002 17.1325 22.5002 17.0012C22.5002 16.8699 22.4743 16.7398 22.424 16.6185C22.3737 16.4972 22.2999 16.387 22.207 16.2942L18.207 12.2932ZM18.08 19.0052C16.832 18.9842 12.562 18.6492 9.207 15.2932C5.841 11.9272 5.515 7.6422 5.495 6.4192L7.5 4.4142L10.086 7.0002L8.793 8.2932C8.67546 8.41065 8.58904 8.55554 8.54155 8.71477C8.49406 8.874 8.487 9.04256 8.521 9.2052C8.545 9.3202 9.132 12.0472 10.792 13.7072C12.452 15.3672 15.179 15.9542 15.294 15.9782C15.4565 16.0132 15.6253 16.0067 15.7846 15.9593C15.944 15.9119 16.0889 15.8253 16.206 15.7072L17.5 14.4142L20.086 17.0002L18.08 19.0052V19.0052Z" fill="white"/>
</svg>
