<svg width="32" height="32" viewBox="0 0 32 32" fill="none" xmlns="http://www.w3.org/2000/svg">
<path fill-rule="evenodd" clip-rule="evenodd" d="M1.33334 3.78417C1.33334 3.13421 1.59154 2.51087 2.05113 2.05128C2.51072 1.59169 3.13405 1.3335 3.78401 1.3335H28.2133C28.5354 1.33297 28.8545 1.39598 29.1522 1.51892C29.4499 1.64186 29.7205 1.82231 29.9483 2.04995C30.1762 2.27758 30.357 2.54793 30.4802 2.84551C30.6035 3.14309 30.6669 3.46207 30.6667 3.78417V28.2135C30.667 28.5357 30.6039 28.8547 30.4808 29.1525C30.3577 29.4502 30.1771 29.7207 29.9494 29.9486C29.7216 30.1764 29.4512 30.3572 29.1535 30.4804C28.8559 30.6037 28.5368 30.667 28.2147 30.6668H3.78401C3.46207 30.6668 3.14329 30.6034 2.84587 30.4802C2.54846 30.3569 2.27824 30.1763 2.05066 29.9486C1.82307 29.7209 1.64259 29.4505 1.51951 29.1531C1.39643 28.8556 1.33317 28.5368 1.33334 28.2148V3.78417ZM12.944 12.5175H16.916V14.5122C17.4893 13.3655 18.956 12.3335 21.16 12.3335C25.3853 12.3335 26.3867 14.6175 26.3867 18.8082V26.5708H22.1107V19.7628C22.1107 17.3762 21.5373 16.0295 20.0813 16.0295C18.0613 16.0295 17.2213 17.4815 17.2213 19.7628V26.5708H12.944V12.5175ZM5.61068 26.3882H9.88801V12.3335H5.61068V26.3868V26.3882ZM10.5 7.7495C10.5081 8.11573 10.4429 8.47988 10.3083 8.82058C10.1738 9.16129 9.97248 9.47168 9.71632 9.73354C9.46016 9.9954 9.15428 10.2035 8.81662 10.3455C8.47896 10.4876 8.11633 10.5607 7.75001 10.5607C7.38369 10.5607 7.02106 10.4876 6.6834 10.3455C6.34575 10.2035 6.03986 9.9954 5.7837 9.73354C5.52754 9.47168 5.32627 9.16129 5.19169 8.82058C5.05711 8.47988 4.99195 8.11573 5.00001 7.7495C5.01584 7.03064 5.31252 6.34655 5.82652 5.84375C6.34053 5.34094 7.03098 5.05939 7.75001 5.05939C8.46905 5.05939 9.1595 5.34094 9.6735 5.84375C10.1875 6.34655 10.4842 7.03064 10.5 7.7495V7.7495Z" fill="white"/>
</svg>
