<svg width="32" height="32" viewBox="0 0 32 32" fill="none" xmlns="http://www.w3.org/2000/svg">
<g clip-path="url(#clip0_6_317)">
<path d="M16 2.883C20.2721 2.883 20.7781 2.89925 22.4653 2.97613C24.0252 3.04738 24.8725 3.308 25.4364 3.52712C26.1831 3.81737 26.7161 4.16412 27.276 4.724C27.836 5.28387 28.1826 5.81687 28.4729 6.56362C28.692 7.1275 28.9526 7.97475 29.0239 9.53463C29.1007 11.2219 29.117 11.7279 29.117 16C29.117 20.2723 29.1007 20.7783 29.0239 22.4654C28.9526 24.0254 28.692 24.8725 28.4729 25.4364C28.1826 26.1831 27.8359 26.7162 27.276 27.2761C26.7161 27.836 26.1831 28.1828 25.4364 28.4729C24.8725 28.692 24.0252 28.9527 22.4653 29.0239C20.7784 29.1009 20.2724 29.1171 16 29.1171C11.7275 29.1171 11.2215 29.1009 9.53463 29.0239C7.97463 28.9526 7.1275 28.692 6.56362 28.4729C5.81687 28.1828 5.28375 27.836 4.72388 27.2761C4.164 26.7161 3.81725 26.1831 3.52712 25.4364C3.308 24.8726 3.04725 24.0254 2.97613 22.4654C2.89913 20.7783 2.88287 20.2723 2.88287 16C2.88287 11.7279 2.89913 11.2219 2.97613 9.53475C3.04738 7.97475 3.308 7.1275 3.52712 6.56362C3.81725 5.81687 4.164 5.28387 4.72388 4.724C5.28388 4.164 5.81687 3.81737 6.56362 3.52712C7.12737 3.308 7.97463 3.04738 9.53463 2.97613C11.2218 2.89925 11.7277 2.883 16 2.883M16 0C11.6546 0 11.1097 0.018375 9.40325 0.09625C7.70012 0.174 6.537 0.4445 5.51937 0.84C4.46712 1.24887 3.57487 1.796 2.68537 2.6855C1.79587 3.575 1.24887 4.46725 0.84 5.51937C0.444375 6.53712 0.174 7.70025 0.09625 9.40325C0.018375 11.1097 0 11.6546 0 16C0 20.3454 0.018375 20.8903 0.09625 22.5968C0.174 24.2999 0.444375 25.463 0.84 26.4806C1.24875 27.5328 1.79587 28.4251 2.68537 29.3146C3.57487 30.2041 4.46712 30.7511 5.51937 31.16C6.53712 31.5556 7.70012 31.826 9.40312 31.9037C11.1097 31.9816 11.6546 32 16 32C20.3454 32 20.8903 31.9816 22.5968 31.9037C24.2998 31.826 25.4629 31.5556 26.4805 31.16C27.5327 30.7512 28.425 30.2041 29.3145 29.3146C30.204 28.4251 30.7511 27.5329 31.16 26.4806C31.5555 25.4629 31.826 24.2999 31.9037 22.5969C31.9816 20.8902 32 20.3454 32 16C32 11.6546 31.9816 11.1097 31.9037 9.40325C31.826 7.70025 31.5555 6.53712 31.16 5.5195C30.7511 4.46725 30.204 3.575 29.3145 2.6855C28.425 1.796 27.5328 1.24875 26.4806 0.84C25.4629 0.4445 24.2998 0.174 22.5968 0.09625C20.8903 0.018375 20.3454 0 16 0ZM16 7.78375C11.4623 7.78375 7.78375 11.4625 7.78375 16C7.78375 20.5377 11.4623 24.2162 16 24.2162C20.5376 24.2162 24.2162 20.5377 24.2162 16C24.2162 11.4624 20.5376 7.78375 16 7.78375V7.78375ZM16 21.3334C13.0545 21.3334 10.6666 18.9455 10.6666 16C10.6666 13.0545 13.0545 10.6666 16 10.6666C18.9455 10.6666 21.3334 13.0545 21.3334 16C21.3334 18.9455 18.9455 21.3334 16 21.3334ZM26.4608 7.45913C26.4608 8.51963 25.6013 9.37912 24.5408 9.37912C23.4804 9.37912 22.6208 8.51963 22.6208 7.45913C22.6208 6.39875 23.4804 5.53912 24.5408 5.53912C25.6013 5.53912 26.4608 6.39875 26.4608 7.45913V7.45913Z" fill="white"/>
</g>
<defs>
<clipPath id="clip0_6_317">
<rect width="32" height="32" fill="white"/>
</clipPath>
</defs>
</svg>
